<svg xmlns="http://www.w3.org/2000/svg" width="130" height="130" viewBox="0 0 130 130">
  <style>
    path { fill: #1a1a1a; }
    @media (prefers-color-scheme: dark) {
      path { fill: #ffffff; }
    }
  </style>
  <path d="m118.7 37.02c-1.92-1.58-3.79-0.88-5.23 0.82l-16.59 17v-7.13l9.87-10.08c1.69-1.77-0.7-3.65-2.13-2.22l-7.74 7.78v-6.98c0-5.6-3.86-6.82-6.25-6.99l13.14-13.21c2.49-2.53-0.85-5.26-3.24-2.96l-31.56 16.68-36.2-0.02c-5.61 0-7.63 4.47-7.63 7v32.77l-15.2 17.4c-2.88 3.01-1.11 5.86 1.14 5.83 1.53-0.03 2.62-1.09 3.67-2.18l76.05-78.07c2.88-3.15 5.9-0.62 2.98 3.36l-19.86 21.51c-1.15 1.15-1.22 3-0.2 3.98 0.99 0.96 2.55 0.56 3.48-0.4l3.88-3.89h7.86v9.43l-8.48 8.52c-1.16 1.19 0.5 2.84 1.79 1.65l8.55-8.61v9.07l-18.2 18.33-21.49 21.61-16.66 16.84c-1.95 2.23 0.48 5.7 3.76 4.27l19.31-18.49 32.38 0.4c6.8 0 7.3-5.99 7.3-6.93v-32.01l20.8-18.93c2.02-2.04 2.12-3.86 0.7-5.15zm-84.25 0.82 26.35-0.13-26.35 25.18v-25.05zm55.25 53.45h-22.59l22.59-21.28v21.28z" />
  <path d="m31.58 77.68-14.47 17.63c-1.29 1.82 1 3.01 2.22 1.75l5.78-5.9c0.46 3.62 3.12 6.93 7.06 7.06l-9.44 10.39c-1.72 2.02 0.7 4.55 3.09 2.72l26.22-26.04c1.69-1.82 0.17-4.35-2.42-2.66l-9.61 8.89h-6.9v-7.46l6.1-6.25c1.76-1.95-0.53-3.87-1.99-2.58l-5.64 5.55v-3.1z" />
  <path d="m76.31 65.18-5.14-0.13-3.05-5.15c-0.8-1.29-2.19-0.99-2.69 0.9l-2.45 8.28-2.86-12.06c-0.63-2.09-2.49-1.79-3.11 0.1l-3.25 8.62-4.7-0.43c-1.89-0.2-2.62 2.36-0.36 2.59l5.23 0.3c0.99 0.13 1.59-0.43 1.85-1.29l2.72-6.74 3.18 12.44c0.4 1.52 2.03 1.25 2.63-0.8l2.91-8.72 1.89 3.32c0.4 0.7 0.8 1 1.63 0.93h5.3c1.89-0.03 1.99-2.09 0.27-2.16z" />
  <path d="m70.31 52.92c2.26 0 3.06-1.53 3.06-2.85 0-1.69-1.26-2.85-2.76-2.85-1.69 0-2.89 1.36-2.89 2.65 0 1.59 1.09 3.05 2.59 3.05z" />
  <path d="m56.74 81.94c1.79 0.86 3.38-0.23 3.98-1.49 0.8-1.73-0.1-3.19-1.36-3.82-1.36-0.7-3.12-0.07-3.81 1.09-0.93 1.63-0.33 3.42 1.19 4.22z" />
  <path d="m113.3 30.32c2.15 0.7 3.51-0.76 4.01-2.22 0.69-2.06-0.67-3.45-2.06-3.89-1.76-0.59-3.51 0.5-4.14 1.9-0.87 1.99 0.2 3.65 2.19 4.21z" />
</svg>
